<svg viewBox="0 0 60 31" id="oslologo" fill="none" xmlns="http://www.w3.org/2000/svg">
  <path fill-rule="evenodd" clip-rule="evenodd"
    d="M20.0477 6.55358L20.4656 6.82091L22.5332 2.90073L22.1732 2.67929C21.4824 2.24907 20.7628 1.86647 20.0197 1.53416L19.6317 1.36059L18.8899 2.77305C18.6799 2.68926 18.468 2.60946 18.256 2.53166L18.6379 0.983535L18.238 0.85386C17.4636 0.606587 16.6733 0.411961 15.8725 0.27132L15.4545 0.1995L15.0726 1.74563C14.8487 1.7157 14.6227 1.68777 14.3987 1.66583V0.069825L13.9748 0.041895C13.5689 0.013965 13.159 0 12.7571 0C12.3551 0 11.9392 0.013965 11.5393 0.041895L11.1154 0.069825V1.66583C10.9274 1.68445 10.7394 1.70639 10.5515 1.73166L10.4415 1.74563L10.0596 0.1995L9.64165 0.27132C8.8409 0.412199 8.05059 0.606821 7.27611 0.85386L6.87618 0.983535L7.25811 2.53166C7.04615 2.60946 6.83419 2.68926 6.62423 2.77305L5.88237 1.36059L5.49445 1.53416C4.74718 1.86598 4.02361 2.24859 3.32886 2.67929L2.96893 2.89076L5.04453 6.82091L5.46245 6.55358C6.10787 6.13944 6.78754 5.78104 7.49406 5.48226H7.50406C7.808 5.35857 8.10195 5.24286 8.40789 5.13912C9.13385 4.89204 9.8798 4.70782 10.6375 4.5885C10.9574 4.53863 11.2853 4.49873 11.6093 4.4708C12.3745 4.40895 13.1436 4.40895 13.9088 4.4708C14.2328 4.49873 14.5607 4.53863 14.8806 4.5885C15.6383 4.70782 16.3843 4.89204 17.1102 5.13912C17.4162 5.24286 17.7201 5.35857 18.016 5.48226C18.7226 5.78104 19.4022 6.13944 20.0477 6.55358ZM5.38447 5.54012L4.1687 3.22991V3.22193C4.59062 2.97455 5.02454 2.74711 5.45646 2.53764L6.19232 3.93414L6.57824 3.76656L6.73221 3.70073C7.12014 3.53714 7.52006 3.38751 7.91998 3.25584L8.31991 3.12417L7.93998 1.59201C8.40989 1.45435 8.8878 1.33864 9.36571 1.24089L9.74563 2.77305L10.1596 2.70323C10.3138 2.67695 10.4716 2.65421 10.6279 2.63168L10.6575 2.62741C10.9654 2.58752 11.2773 2.5536 11.5873 2.53166L12.0072 2.50173V0.923685C12.4991 0.90174 12.985 0.90174 13.4749 0.923685V2.49375L13.8948 2.52367C14.3707 2.55759 14.8507 2.61544 15.3226 2.69525L15.7365 2.76507L16.1164 1.23291C16.5943 1.33066 17.0722 1.44637 17.5421 1.58403L17.1622 3.11619L17.5621 3.24786C17.9641 3.37953 18.362 3.52916 18.7499 3.69275L18.9039 3.75858L19.2918 3.92616L20.0257 2.52966C20.4676 2.73914 20.9015 2.96657 21.3234 3.21395L20.1096 5.52416C19.5468 5.19153 18.9623 4.89694 18.36 4.64237C18.044 4.5107 17.7201 4.38701 17.3962 4.27529C16.6217 4.01338 15.8263 3.81782 15.0186 3.69075C14.6747 3.63688 14.3268 3.59499 13.9808 3.56507C13.1651 3.49724 12.3451 3.49724 11.5293 3.56507C11.1834 3.59499 10.8354 3.63688 10.4935 3.69075C9.68188 3.82234 8.88309 4.02325 8.10595 4.29124C7.78201 4.40297 7.45807 4.52666 7.14613 4.65833H7.13213C6.53027 4.9125 5.94637 5.20711 5.38447 5.54012Z"
    fill="var(--fg-color, #2A2859)" />
  <path fill-rule="evenodd" clip-rule="evenodd"
    d="M0.247261 20.5061C1.4358 26.4514 6.66864 30.7309 12.7451 30.727C16.1223 30.734 19.3622 29.3937 21.7433 27.0043C26.0395 22.717 26.7014 15.9988 23.3242 10.9589C19.9471 5.9191 13.4716 3.96159 7.85858 6.28374C2.24559 8.60589 -0.941275 14.5608 0.247261 20.5061ZM1.18083 15.7275C2.27938 10.2247 7.12121 6.26257 12.7451 6.26428V6.27026C15.8716 6.2599 18.8722 7.49847 21.0775 9.70964C25.0538 13.6775 25.6668 19.8952 22.5417 24.56C19.4165 29.2248 13.4237 31.0374 8.22835 28.8892C3.03301 26.741 0.0822852 21.2303 1.18083 15.7275Z"
    fill="var(--fg-color, #2A2859)" />
  <path fill-rule="evenodd" clip-rule="evenodd"
    d="M10.2935 14.4099C9.3559 13.1546 9.52696 11.3941 10.6888 10.3419C11.8507 9.28967 13.6235 9.28967 14.7853 10.3419C15.9472 11.3941 16.1182 13.1546 15.1806 14.4099L15.8525 14.9086C16.3546 14.2413 16.6249 13.4288 16.6223 12.5944C16.6235 10.9086 15.5324 9.41535 13.9234 8.9006C12.3144 8.38586 10.5564 8.96766 9.57474 10.3398C8.59308 11.7119 8.61286 13.5597 9.62366 14.9106L10.2935 14.4099Z"
    fill="var(--fg-color, #2A2859)" />
  <path fill-rule="evenodd" clip-rule="evenodd"
    d="M14.2588 13.8214C14.2577 14.6583 13.5779 15.3365 12.7391 15.3376C11.9006 15.3365 11.2214 14.658 11.2214 13.8214V13.6718H10.7195V12.7062C10.7195 11.5933 11.6237 10.6912 12.7391 10.6912C13.8545 10.6912 14.7587 11.5933 14.7587 12.7062V13.6718H14.2588V13.8214ZM12.7391 11.5271C12.0864 11.5271 11.5573 12.055 11.5573 12.7062V13.6718H11.9192V13.8214C11.9043 14.1236 12.0574 14.4095 12.3175 14.5651C12.5777 14.7207 12.9025 14.7207 13.1627 14.5651C13.4228 14.4095 13.5759 14.1236 13.5609 13.8214V13.6718H13.9209V12.7062C13.9209 12.055 13.3918 11.5271 12.7391 11.5271Z"
    fill="var(--fg-color, #2A2859)" />
  <rect x="4.04474" y="18.6014" width="1.16978" height="1.16708" fill="var(--fg-color, #2A2859)" />
  <path fill-rule="evenodd" clip-rule="evenodd"
    d="M22.1513 17.6957V18.3221H22.7511L21.1255 19.946V17.1211L21.5414 17.5381L21.9853 17.0952L20.8115 15.9221L19.6297 17.1012L20.0737 17.5441L20.4976 17.1211V19.942L18.8739 18.3221H19.4638V17.6957H17.8001V19.3635H18.43V18.765L19.6917 20.0358H17.1402L16.8743 19.7984L16.6463 17.7216C16.6343 17.6099 16.5103 16.5406 15.6205 16.0837H15.5985L14.6927 15.7266L14.5547 15.6747L14.4167 15.7186C13.8665 15.8561 13.3001 15.9178 12.7331 15.9022C12.1667 15.9182 11.6009 15.8564 11.0514 15.7186L10.9114 15.6747L9.87361 16.0737H9.85162C8.96179 16.5306 8.83781 17.5979 8.82781 17.7116L8.59186 19.8622L8.3919 20.0258H7.50607C7.58641 19.751 7.62748 19.4662 7.62804 19.18C7.62088 17.5887 6.36667 16.2813 4.77353 16.2044C3.18039 16.1275 1.80559 17.3081 1.64455 18.8913C1.48352 20.4745 2.59257 21.9065 4.16871 22.1505H4.2067C4.28669 22.1625 4.36667 22.1705 4.44865 22.1764L8.34791 22.5754C8.20861 23.8926 7.94823 25.1941 7.57006 26.4637L7.96998 26.5954L8.3699 26.7251C8.77038 25.3886 9.04288 24.0172 9.18375 22.6293L10.0616 21.8872L9.9276 27.3096L10.2795 27.3734C11.9235 27.6593 13.6046 27.6593 15.2486 27.3734L15.5985 27.3076L15.4645 21.8932L16.3464 22.6393C16.4886 24.0253 16.7625 25.3947 17.1642 26.729L17.9641 26.4677C17.5853 25.1996 17.3249 23.8993 17.1862 22.5834L21.1115 22.2203V20.8558L23.1971 18.773V19.3715H23.8249V17.7136L22.1513 17.6957ZM12.7391 16.7361C13.344 16.7467 13.9481 16.6858 14.5387 16.5545L15.2666 16.8318C15.7286 17.0841 15.8128 17.7188 15.8217 17.7857L15.8225 17.7914L16.0024 19.4333H14.9886C14.5788 19.437 14.1759 19.3272 13.8249 19.1161C13.5614 18.9225 13.3259 18.6936 13.125 18.4358L11.6933 16.6822C12.0406 16.7197 12.3897 16.7377 12.7391 16.7361ZM4.52264 21.3505H4.62862V21.3525C5.79443 21.3541 6.75308 20.4362 6.79941 19.274C6.84574 18.1118 5.96319 17.1208 4.80093 17.03C3.63867 16.9392 2.61225 17.781 2.47668 18.9362C2.3411 20.0914 3.14483 21.1471 4.29668 21.3266L4.52264 21.3505ZM10.0936 20.766L8.89381 21.7854L6.49427 21.544C6.74108 21.3524 6.95573 21.1228 7.13014 20.8637H8.71784L10.1176 19.6847L10.0936 20.766ZM10.1456 18.5715H10.1576L11.3433 17.568L10.6255 16.6822L10.2256 16.8338C9.73764 17.0992 9.66966 17.7934 9.66966 17.7934V17.8054L9.52968 19.0902L10.1456 18.5715ZM12.7571 26.751C12.1 26.7507 11.4438 26.704 10.7934 26.6113L10.8374 24.8398L10.9794 18.9705L11.8732 18.2204L12.4731 18.9565C12.7347 19.2928 13.0455 19.5881 13.3949 19.8323C13.7602 20.0556 14.1694 20.1978 14.5947 20.2493L14.7507 26.6073C14.0863 26.7014 13.4161 26.7481 12.7451 26.747L12.7571 26.751ZM16.6563 21.7914L20.2816 21.4543L20.2796 20.8677H16.8303L16.1604 20.2692H14.9886H14.8567L16.6563 21.7914Z"
    fill="var(--fg-color, #2A2859)" />
  <path fill-rule="evenodd" clip-rule="evenodd"
    d="M36.9505 12.4827C34.5529 12.4827 32.5973 14.37 32.5973 17.4702C32.5973 20.6762 34.5549 22.5994 36.9505 22.5994C39.346 22.5994 41.3016 20.6762 41.3016 17.4702C41.3016 14.378 39.348 12.4827 36.9505 12.4827ZM36.9505 13.5959C38.6901 13.5959 40.0699 14.7989 40.0699 17.4702C40.0699 20.1415 38.6381 21.4782 36.9505 21.4782C35.2628 21.4782 33.8291 20.1475 33.8291 17.4702C33.8291 14.7929 35.2108 13.5959 36.9505 13.5959Z"
    fill="var(--fg-color, #2A2859)" />
  <path fill-rule="evenodd" clip-rule="evenodd"
    d="M45.4468 15.2657C46.7585 15.2657 47.7224 15.8403 48.0963 16.776L47.2265 17.2169C46.9325 16.5884 46.2886 16.2413 45.4268 16.2413C44.517 16.2413 43.9131 16.6024 43.9131 17.2029C43.9131 17.7236 44.249 18.0308 45.0129 18.2004L46.0427 18.3999C47.5824 18.7071 48.3202 19.3974 48.3202 20.4567C48.3202 21.7256 47.1945 22.5954 45.5348 22.5954C44.0871 22.5954 43.0573 22.0328 42.5474 20.9994L43.4312 20.5325C43.7851 21.2328 44.487 21.6318 45.4988 21.6318C46.5106 21.6318 47.2005 21.1909 47.2005 20.5226C47.2005 19.934 46.8525 19.6129 46.0347 19.4393L44.8169 19.1999C43.5052 18.9326 42.7953 18.2642 42.7953 17.2887C42.7953 16.1336 43.8871 15.2657 45.4468 15.2657Z"
    fill="var(--fg-color, #2A2859)" />
  <path fill-rule="evenodd" clip-rule="evenodd"
    d="M51.8336 22.5475C50.6338 22.5475 50.0519 21.8113 50.0519 20.6622V12.5944H51.2037V20.6103C51.2037 21.2248 51.5377 21.5181 52.1015 21.5181C52.2459 21.5188 52.3898 21.5007 52.5295 21.4642V22.4617C52.3015 22.5165 52.0681 22.5453 51.8336 22.5475Z"
    fill="var(--fg-color, #2A2859)" />
  <path fill-rule="evenodd" clip-rule="evenodd"
    d="M56.7606 15.2657C54.953 15.2657 53.5073 16.7081 53.5073 18.9126C53.5073 21.157 54.981 22.5994 56.7606 22.5994C58.5403 22.5994 60 21.157 60 18.9126C60 16.7081 58.5683 15.2657 56.7606 15.2657ZM56.7606 16.2672C57.8724 16.2672 58.8082 17.1171 58.8082 18.9126C58.8082 20.7161 57.8984 21.5979 56.7606 21.5979C55.6228 21.5979 54.697 20.7161 54.697 18.9126C54.697 17.1091 55.6488 16.2672 56.7606 16.2672Z"
    fill="var(--fg-color, #2A2859)" />
</svg>